<svg xmlns="http://www.w3.org/2000/svg" width="24" height="24" viewBox="0 0 24 24" fill="none">
<path opacity="0.75" d="M10.7999 17.0001H9.7999C9.6999 17.0001 9.5999 16.9001 9.4999 16.8001C9.3999 16.7001 9.3999 16.5001 9.3999 16.4001V15.0001C9.3999 14.8001 9.3999 14.7001 9.4999 14.6001C9.5999 14.5001 9.6999 14.4001 9.7999 14.4001H11.1999C11.2999 14.4001 11.2999 14.4001 11.3999 14.5001C11.4999 14.5001 11.4999 14.6001 11.5999 14.7001C11.5999 14.8001 11.6999 14.9001 11.6999 15.0001C11.6999 15.1001 11.6999 15.2001 11.6999 15.3001L11.2999 16.7001C11.2999 16.8001 11.1999 16.9001 11.0999 17.0001C10.9999 16.9001 10.8999 17.0001 10.7999 17.0001Z" fill="url(#paint0_linear)"/>
<path opacity="0.55" d="M11.2 14.4001H10.8C10.9 14.4001 10.9 14.4001 11 14.5001C11.1 14.5001 11.1 14.6001 11.2 14.7001C11.3 14.8001 11.3 14.9001 11.3 15.0001C11.3 15.1001 11.3 15.2001 11.3 15.3001L10.9 16.7001C10.9 16.8001 10.8 16.9001 10.7 17.0001C10.6 17.1001 10.6 17.1001 10.5 17.1001H10.9C11 17.1001 11.1 17.1001 11.1 17.0001C11.2 16.9001 11.2 16.8001 11.3 16.7001L11.7 15.3001C11.7 15.2001 11.7 15.1001 11.7 15.0001C11.7 14.9001 11.7 14.8001 11.6 14.7001C11.6 14.6001 11.5 14.5001 11.4 14.5001C11.4 14.4001 11.3 14.4001 11.2 14.4001Z" fill="url(#paint1_linear)"/>
<path opacity="0.4" d="M3.9999 12.8001L1.9999 16.5001C1.6999 16.7001 1.3999 17.0001 1.0999 17.4001C0.899902 17.8001 0.699902 18.2001 0.599902 18.6001C0.499902 19.0001 0.499902 19.5001 0.599902 19.9001C0.599902 20.2001 0.799902 20.7001 0.999902 21.0001C1.1999 21.4001 1.4999 21.7001 1.8999 21.9001C2.1999 22.1001 2.5999 22.1001 2.9999 22.0001C3.0999 22.0001 3.0999 22.0001 3.1999 21.9001C3.2999 21.9001 3.2999 21.8001 3.2999 21.7001L6.8999 14.5001C6.9999 14.2001 7.0999 13.9001 7.0999 13.6001C7.0999 13.3001 6.9999 13.0001 6.8999 12.7001C6.6999 12.4001 6.4999 12.2001 6.2999 12.0001C5.9999 12.0001 5.6999 11.9001 5.4999 11.9001H5.3999C5.0999 11.9001 4.7999 12.0001 4.5999 12.1001C4.2999 12.3001 4.0999 12.5001 3.9999 12.8001Z" fill="url(#paint2_linear)"/>
<path d="M4.0001 11.9001C3.7001 11.9001 3.4001 12.0001 3.2001 12.2001C3.0001 12.4001 2.7001 12.6001 2.6001 12.9001L0.500098 17.0001C0.100098 17.8001 9.76548e-05 18.6001 0.200098 19.5001C0.400098 20.3001 0.800098 21.1001 1.4001 21.6001C1.5001 21.6001 1.5001 21.7001 1.6001 21.7001C1.7001 21.7001 1.7001 21.7001 1.8001 21.7001C1.9001 21.7001 1.9001 21.7001 2.0001 21.6001C2.1001 21.6001 2.1001 21.5001 2.1001 21.4001L5.5001 14.6001C5.6001 14.3001 5.7001 14.0001 5.7001 13.7001C5.7001 13.4001 5.6001 13.1001 5.5001 12.8001C5.4001 12.5001 5.1001 12.3001 4.9001 12.1001C4.5001 12.0001 4.3001 11.9001 4.0001 11.9001Z" fill="url(#paint3_linear)"/>
<path d="M19.3999 10.5H5.4999C4.8999 10.5 4.3999 10 4.3999 9.40005C4.3999 8.80005 4.8999 8.30005 5.4999 8.30005H19.3999C19.9999 8.30005 20.4999 8.80005 20.4999 9.40005C20.4999 10 19.9999 10.5 19.3999 10.5Z" fill="url(#paint4_linear)"/>
<path d="M10.1002 7.4001C10.5973 7.4001 11.0002 6.99715 11.0002 6.5001C11.0002 6.00304 10.5973 5.6001 10.1002 5.6001C9.60314 5.6001 9.2002 6.00304 9.2002 6.5001C9.2002 6.99715 9.60314 7.4001 10.1002 7.4001Z" fill="url(#paint5_linear)"/>
<path d="M11.4001 15.2H4.5001C2.9001 15.2 1.6001 13.9 1.6001 12.3V6.20005C1.6001 4.60005 2.9001 3.30005 4.5001 3.30005H11.4001C13.0001 3.30005 14.3001 4.60005 14.3001 6.20005V12.3C14.3001 13.9 13.0001 15.2 11.4001 15.2Z" fill="url(#paint6_linear)"/>
<path opacity="0.75" d="M16.6002 13.7001C16.1002 13.7001 15.7002 13.3001 15.7002 12.8001V6.0001C15.7002 5.5001 16.1002 5.1001 16.6002 5.1001C17.1002 5.1001 17.5002 5.5001 17.5002 6.0001V12.8001C17.6002 13.3001 17.2002 13.7001 16.6002 13.7001Z" fill="url(#paint7_linear)"/>
<path opacity="0.75" d="M8.7001 6.5001C8.7001 7.0001 8.3001 7.4001 7.8001 7.4001H1.0001C0.500098 7.4001 0.100098 7.0001 0.100098 6.5001C0.100098 6.0001 0.500098 5.6001 1.0001 5.6001H7.8001C8.3001 5.6001 8.7001 6.0001 8.7001 6.5001Z" fill="url(#paint8_linear)"/>
<path d="M21.5 11.9001C22.8807 11.9001 24 10.7809 24 9.40015C24 8.01943 22.8807 6.90015 21.5 6.90015C20.1193 6.90015 19 8.01943 19 9.40015C19 10.7809 20.1193 11.9001 21.5 11.9001Z" fill="url(#paint9_linear)"/>
<defs>
<linearGradient id="paint0_linear" x1="9.3915" y1="15.6794" x2="11.6538" y2="15.6794" gradientUnits="userSpaceOnUse">
<stop stop-color="#F3748C"/>
<stop offset="0.22" stop-color="#F3798F"/>
<stop offset="0.46" stop-color="#F58697"/>
<stop offset="0.72" stop-color="#F79CA5"/>
<stop offset="0.98" stop-color="#FABCB9"/>
<stop offset="1" stop-color="#FABEBA"/>
</linearGradient>
<linearGradient id="paint1_linear" x1="41.0967" y1="15.6775" x2="63.9981" y2="15.6775" gradientUnits="userSpaceOnUse">
<stop stop-color="#F2D254"/>
<stop offset="0.04" stop-color="#F3CA52"/>
<stop offset="0.25" stop-color="#F7A249"/>
<stop offset="0.45" stop-color="#FB8342"/>
<stop offset="0.65" stop-color="#FD6C3D"/>
<stop offset="0.83" stop-color="#FF5F3A"/>
<stop offset="1" stop-color="#FF5A39"/>
</linearGradient>
<linearGradient id="paint2_linear" x1="0.0406016" y1="18.0647" x2="7.8301" y2="15.9585" gradientUnits="userSpaceOnUse">
<stop stop-color="#F2D254"/>
<stop offset="0.04" stop-color="#F3CA52"/>
<stop offset="0.25" stop-color="#F7A249"/>
<stop offset="0.45" stop-color="#FB8342"/>
<stop offset="0.65" stop-color="#FD6C3D"/>
<stop offset="0.83" stop-color="#FF5F3A"/>
<stop offset="1" stop-color="#FF5A39"/>
</linearGradient>
<linearGradient id="paint3_linear" x1="-1.8589" y1="22.6408" x2="5.8329" y2="12.3946" gradientUnits="userSpaceOnUse">
<stop stop-color="#5679F5"/>
<stop offset="1" stop-color="#BE35FF" stop-opacity="0.2"/>
</linearGradient>
<linearGradient id="paint4_linear" x1="12.5043" y1="8.31945" x2="12.0546" y2="13.5847" gradientUnits="userSpaceOnUse">
<stop stop-color="#D67FFA" stop-opacity="0.64"/>
<stop offset="0.599" stop-color="#A13BD5"/>
<stop offset="1" stop-color="#8B2CBE"/>
</linearGradient>
<linearGradient id="paint5_linear" x1="9.5036" y1="7.2607" x2="11.1086" y2="5.3688" gradientUnits="userSpaceOnUse">
<stop offset="0.1235" stop-color="#FBE25C"/>
<stop offset="0.4397" stop-color="#FCDE58"/>
<stop offset="0.7511" stop-color="#FDD24D"/>
<stop offset="1" stop-color="#FFC33F"/>
</linearGradient>
<linearGradient id="paint6_linear" x1="2.8536" y1="15.3031" x2="15.9875" y2="-0.178851" gradientUnits="userSpaceOnUse">
<stop stop-color="#5679F5"/>
<stop offset="1" stop-color="#BE35FF" stop-opacity="0.2"/>
</linearGradient>
<linearGradient id="paint7_linear" x1="14.2395" y1="12.2322" x2="20.4197" y2="4.9471" gradientUnits="userSpaceOnUse">
<stop offset="0.1235" stop-color="#FBE25C"/>
<stop offset="0.4397" stop-color="#FCDE58"/>
<stop offset="0.7511" stop-color="#FDD24D"/>
<stop offset="1" stop-color="#FFC33F"/>
</linearGradient>
<linearGradient id="paint8_linear" x1="7.1963" y1="8.9365" x2="-0.0888034" y2="2.7563" gradientUnits="userSpaceOnUse">
<stop offset="0.1235" stop-color="#FBE25C"/>
<stop offset="0.4397" stop-color="#FCDE58"/>
<stop offset="0.7511" stop-color="#FDD24D"/>
<stop offset="1" stop-color="#FFC33F"/>
</linearGradient>
<linearGradient id="paint9_linear" x1="21.6313" y1="7.80705" x2="20.9668" y2="15.586" gradientUnits="userSpaceOnUse">
<stop stop-color="#F5D422"/>
<stop offset="1" stop-color="#FFA800"/>
</linearGradient>
</defs>
</svg>