<svg xmlns="http://www.w3.org/2000/svg" width="24" height="24" viewBox="0 0 24 24" fill="none"><path opacity=".55" fill-rule="evenodd" clip-rule="evenodd" d="M4.481 4.992H16.03c1.188 0 2.15.985 2.15 2.2v14.324c0 1.173-.962 2.123-2.15 2.123H4.48c-1.188 0-2.15-.95-2.15-2.123V7.193c0-1.216.962-2.201 2.15-2.201z" fill="url(#paint0_linear)"/><path opacity=".8" d="M22.316 18.919h-2.403v-4.566h2.403c.884 0 1.598.714 1.598 1.598v1.37c0 .884-.714 1.598-1.598 1.598z" fill="url(#paint1_linear)"/><path opacity=".85" d="M22.119 16.484a.534.534 0 01-.533-.533V8.61c0-.294.24-.533.533-.533.293 0 .532.24.532.533v7.341a.528.528 0 01-.532.533z" fill="url(#paint2_linear)"/><path opacity=".8" d="M18.832 8.189H1.798C.914 8.189.2 8.902.2 9.787v10.115c0 .884.714 1.598 1.598 1.598h17.034c.884 0 1.598-.714 1.598-1.598V9.787c0-.885-.714-1.598-1.598-1.598z" fill="url(#paint3_linear)"/><path d="M5.565 18.844H3.247a.703.703 0 01-.703-.703v-6.585c0-.39.315-.704.703-.704h2.318c.389 0 .703.315.703.704v6.59a.702.702 0 01-.703.698z" fill="url(#paint4_linear)"/><path d="M11.213 18.844H8.895a.703.703 0 01-.703-.703v-6.585c0-.39.314-.704.703-.704h2.318c.388 0 .703.315.703.704v6.59a.705.705 0 01-.704.698z" fill="url(#paint5_linear)"/><path d="M16.54 18.844h-2.317a.703.703 0 01-.704-.703v-6.585c0-.39.315-.704.704-.704h2.317c.39 0 .704.315.704.704v6.59a.702.702 0 01-.704.698z" fill="url(#paint6_linear)"/><path d="M4.25 16.804a.537.537 0 01-.534-.506c-.026-.565.165-1.135.373-1.588h-.533a.534.534 0 01-.532-.533c0-.293.24-.533.532-.533h1.45c.197 0 .383.112.474.288a.545.545 0 01-.038.554c-.191.272-.681 1.119-.655 1.764a.527.527 0 01-.506.554h-.032z" fill="url(#paint7_linear)"/><path d="M9.971 16.804a.537.537 0 01-.533-.506c-.026-.56.166-1.135.373-1.588H9.28a.534.534 0 01-.533-.533c0-.293.24-.533.533-.533h1.449c.197 0 .383.112.474.288a.545.545 0 01-.037.554c-.192.272-.688 1.119-.656 1.764a.527.527 0 01-.506.554h-.032z" fill="url(#paint8_linear)"/><path d="M15.224 16.804a.537.537 0 01-.533-.506c-.026-.565.166-1.135.373-1.588h-.532a.534.534 0 01-.533-.533c0-.293.24-.533.533-.533h1.443c.197 0 .384.112.475.288a.545.545 0 01-.038.554c-.191.272-.682 1.119-.655 1.764a.527.527 0 01-.506.554h-.027z" fill="url(#paint9_linear)"/><path opacity=".9" d="M11.075 2.284L12.13 4.25l2.195.4a.533.533 0 01.288.894L13.067 7.16l.299 2.21a.536.536 0 01-.762.555l-2.009-.97-2.008.97a.536.536 0 01-.762-.554l.298-2.211-1.545-1.615a.535.535 0 01.288-.895l2.195-.4 1.055-1.965c.218-.379.756-.379.959 0z" fill="url(#paint10_linear)"/><path opacity=".75" d="M22.119 8.902a1.811 1.811 0 100-3.622 1.811 1.811 0 000 3.622z" fill="url(#paint11_linear)"/><path opacity=".9" d="M6.048.535l.593.545.796-.124c.151-.024.27.13.205.27l-.336.735.365.719a.194.194 0 01-.195.28l-.8-.093-.57.569a.193.193 0 01-.325-.099l-.161-.79-.719-.366a.193.193 0 01-.008-.34l.701-.397.127-.796a.198.198 0 01.327-.113z" fill="url(#paint12_linear)"/><path opacity=".9" d="M16.97 2.221l-.067.55.388.394a.132.132 0 01-.07.222l-.544.107-.255.49a.133.133 0 01-.234.003l-.268-.483-.545-.09a.133.133 0 01-.075-.222l.376-.405-.082-.548a.133.133 0 01.186-.14l.502.233.494-.248c.099-.045.208.032.195.137z" fill="url(#paint13_linear)"/><defs><linearGradient id="paint0_linear" x1="22.948" y1="30" x2="5.989" y2="-1.494" gradientUnits="userSpaceOnUse"><stop stop-color="#A776BB" stop-opacity="0"/><stop offset="1" stop-color="#794496"/></linearGradient><linearGradient id="paint1_linear" x1="20.115" y1="15.553" x2="24.095" y2="16.788" gradientUnits="userSpaceOnUse"><stop stop-color="#F85473"/><stop offset=".22" stop-color="#F2627C"/><stop offset=".46" stop-color="#F58697"/><stop offset=".72" stop-color="#F79CA5"/><stop offset=".98" stop-color="#FABCB9"/><stop offset="1" stop-color="#FABEBA"/></linearGradient><linearGradient id="paint2_linear" x1="22.199" y1="16.345" x2="18.023" y2="9.086" gradientUnits="userSpaceOnUse"><stop stop-color="#D3B3DB"/><stop offset=".32" stop-color="#A776BB"/><stop offset=".599" stop-color="#9059AC"/><stop offset=".84" stop-color="#794496"/></linearGradient><linearGradient id="paint3_linear" x1="-1.398" y1="8.189" x2="15.621" y2="24.822" gradientUnits="userSpaceOnUse"><stop stop-color="#F2627C"/><stop offset=".297" stop-color="#F58697"/><stop offset=".625" stop-color="#F79CA5"/><stop offset="1" stop-color="#FABCB9"/></linearGradient><linearGradient id="paint4_linear" x1="2.331" y1="10.852" x2="8.751" y2="22.307" gradientUnits="userSpaceOnUse"><stop stop-color="#fff"/><stop offset="1" stop-color="#fff" stop-opacity="0"/></linearGradient><linearGradient id="paint5_linear" x1="7.979" y1="10.852" x2="14.399" y2="22.307" gradientUnits="userSpaceOnUse"><stop stop-color="#fff"/><stop offset="1" stop-color="#fff" stop-opacity="0"/></linearGradient><linearGradient id="paint6_linear" x1="13.306" y1="10.852" x2="19.726" y2="22.307" gradientUnits="userSpaceOnUse"><stop stop-color="#fff"/><stop offset="1" stop-color="#fff" stop-opacity="0"/></linearGradient><linearGradient id="paint7_linear" x1="4.281" y1="13.644" x2="4.281" y2="16.804" gradientUnits="userSpaceOnUse"><stop stop-color="#D8338C"/><stop offset="1" stop-color="#D8338C" stop-opacity="0"/></linearGradient><linearGradient id="paint8_linear" x1="10.003" y1="13.644" x2="10.003" y2="16.804" gradientUnits="userSpaceOnUse"><stop stop-color="#D8338C"/><stop offset="1" stop-color="#D8338C" stop-opacity="0"/></linearGradient><linearGradient id="paint9_linear" x1="15.254" y1="13.644" x2="15.254" y2="16.804" gradientUnits="userSpaceOnUse"><stop stop-color="#D8338C"/><stop offset="1" stop-color="#D8338C" stop-opacity="0"/></linearGradient><linearGradient id="paint10_linear" x1="9.578" y1="3.6" x2="25.033" y2="17.147" gradientUnits="userSpaceOnUse"><stop stop-color="#FFE600"/><stop offset="1" stop-color="#FF6B00"/></linearGradient><linearGradient id="paint11_linear" x1="23.287" y1="2.859" x2="24.553" y2="8.713" gradientUnits="userSpaceOnUse"><stop offset=".271" stop-color="#26BE6C"/><stop offset=".771" stop-color="#77EA77"/><stop offset="1" stop-color="#6CEC80"/></linearGradient><linearGradient id="paint12_linear" x1="4.774" y1=".344" x2="7.94" y2="2.945" gradientUnits="userSpaceOnUse"><stop stop-color="#FFCB00"/><stop offset="1" stop-color="#FB8342" stop-opacity="0"/></linearGradient><linearGradient id="paint13_linear" x1="16.568" y1="1.435" x2="16.381" y2="4.24" gradientUnits="userSpaceOnUse"><stop stop-color="#FFCB00"/><stop offset="1" stop-color="#FB8342" stop-opacity="0"/></linearGradient></defs></svg>